<?xml version="1.0" standalone="no"?>
<!DOCTYPE svg PUBLIC "-//W3C//DTD SVG 20010904//EN"
 "http://www.w3.org/TR/2001/REC-SVG-20010904/DTD/svg10.dtd">
<svg version="1.0" xmlns="http://www.w3.org/2000/svg"
 width="1000.000000pt" height="1000.000000pt" viewBox="0 0 1000.000000 1000.000000"
 preserveAspectRatio="xMidYMid meet">
<metadata>
Created by potrace 1.16, written by Peter Selinger 2001-2019
</metadata>
<g transform="translate(0.000000,1000.000000) scale(0.100000,-0.100000)"
fill="#000000" stroke="none">
<path d="M0 5000 l0 -5000 5000 0 5000 0 0 5000 0 5000 -5000 0 -5000 0 0
-5000z m3042 2348 l3 -652 28 42 c42 64 155 179 223 228 75 54 188 108 274
131 51 14 101 18 240 17 156 -1 186 -3 275 -27 360 -96 662 -378 770 -718 47
-148 59 -241 59 -434 -1 -197 -18 -313 -70 -457 -134 -372 -449 -649 -829
-729 -96 -21 -324 -16 -417 9 -176 47 -334 137 -480 272 l-78 72 0 -166 0
-166 -250 0 -250 0 0 1615 0 1615 250 0 250 0 2 -652z m3521 -252 c386 -88
682 -334 792 -656 48 -142 59 -226 59 -485 l1 -240 -907 -3 c-864 -2 -908 -3
-908 -20 0 -35 30 -133 59 -190 95 -188 330 -324 597 -347 87 -8 244 7 339 31
107 27 234 96 314 170 l74 68 50 -54 c27 -30 90 -98 138 -151 l89 -97 -68 -63
c-160 -151 -364 -251 -614 -300 -136 -27 -397 -32 -518 -10 -361 65 -672 293
-825 606 -95 193 -132 389 -122 640 14 325 111 566 312 770 186 189 426 310
690 349 66 10 382 -3 448 -18z m-43 -4021 l0 -715 -105 0 -105 0 0 75 0 74
-50 -50 c-61 -61 -132 -95 -229 -109 -246 -35 -471 122 -536 375 -19 75 -19
211 0 293 39 164 167 304 323 352 175 54 329 22 443 -91 l49 -50 0 281 0 280
105 0 105 0 0 -715z m-3168 617 c-9 -21 -186 -396 -392 -835 l-375 -797 -164
0 c-127 0 -162 3 -158 13 8 20 778 1640 783 1649 3 4 77 8 164 8 l159 0 -17
-38z m5108 -510 l375 -178 3 -140 3 -140 -477 -224 c-262 -124 -481 -227 -486
-228 -5 -2 -7 66 -6 154 l3 158 293 140 c160 76 292 142 292 145 0 3 -133 67
-295 141 l-295 135 0 157 0 157 108 -50 c59 -28 276 -130 482 -227z m-6350
119 c0 -107 -3 -151 -12 -158 -7 -5 -139 -67 -293 -138 -154 -70 -283 -130
-287 -134 -3 -3 127 -69 290 -146 l297 -141 3 -158 c1 -92 -1 -156 -7 -154 -5
1 -223 104 -485 227 l-476 224 0 141 1 141 472 222 c260 122 478 222 485 223
9 0 12 -36 12 -149z m1948 67 c64 -21 177 -90 195 -119 8 -13 -1 -30 -43 -80
-29 -35 -56 -68 -61 -73 -5 -6 -26 3 -53 22 -80 58 -132 75 -226 76 -74 1 -93
-3 -142 -27 -130 -64 -193 -170 -186 -308 10 -176 135 -304 309 -317 89 -6
161 16 239 75 l63 47 58 -62 c33 -35 59 -67 59 -72 0 -15 -99 -89 -160 -120
-139 -70 -303 -84 -437 -37 -141 49 -263 164 -314 295 -31 80 -39 264 -14 347
47 164 160 284 323 345 117 44 270 47 390 8z m986 -3 c364 -126 467 -597 190
-870 -102 -102 -227 -149 -384 -148 -161 1 -275 47 -380 153 -105 106 -150
217 -150 370 0 179 71 322 211 425 139 103 339 130 513 70z m2271 4 c86 -29
188 -101 236 -167 59 -83 79 -160 79 -303 l0 -119 -401 0 -401 0 7 -32 c18
-82 65 -139 155 -185 51 -26 63 -28 170 -28 129 1 175 15 244 76 l37 32 60
-59 c32 -32 59 -63 59 -70 0 -20 -124 -103 -192 -128 -190 -71 -401 -48 -546
58 -135 100 -202 239 -202 423 0 198 72 343 220 442 133 88 317 112 475 60z"/>
<path d="M3555 6674 c-113 -28 -202 -80 -301 -179 -77 -76 -98 -105 -137 -185
-63 -127 -78 -191 -84 -345 -6 -147 9 -253 50 -355 80 -196 236 -347 421 -406
356 -113 746 80 875 432 73 201 62 458 -28 647 -91 190 -278 346 -471 391 -81
19 -245 19 -325 0z"/>
<path d="M6122 6685 c-140 -32 -302 -122 -384 -214 -80 -89 -137 -229 -138
-338 l0 -33 666 0 665 0 -6 58 c-28 262 -162 431 -399 508 -101 33 -302 42
-404 19z"/>
<path d="M5906 3193 c-70 -21 -166 -118 -192 -193 -28 -80 -25 -208 5 -277 28
-62 102 -136 169 -166 68 -30 180 -29 242 2 61 31 116 86 148 146 25 45 27 60
27 160 0 100 -2 115 -28 167 -70 143 -219 208 -371 161z"/>
<path d="M2766 3067 c-165 -347 -337 -710 -383 -804 l-82 -173 133 0 133 0
377 799 c207 439 376 802 376 805 0 3 -57 6 -127 6 l-128 0 -299 -633z"/>
<path d="M7900 3287 l0 -124 308 -142 c169 -78 310 -146 314 -150 4 -3 -134
-74 -307 -155 l-315 -149 0 -124 c0 -67 4 -123 8 -123 5 0 209 94 453 209
l444 210 3 123 3 124 -441 207 c-243 115 -447 210 -455 214 -13 4 -15 -15 -15
-120z"/>
<path d="M1617 3198 l-448 -212 3 -124 3 -125 444 -208 c244 -115 448 -209
452 -209 5 0 9 55 9 123 l0 123 -315 149 c-173 81 -312 151 -310 155 2 3 144
71 315 150 l310 143 0 124 c0 67 -3 123 -7 123 -5 -1 -210 -96 -456 -212z"/>
<path d="M4783 3200 c-97 -20 -178 -86 -222 -179 -22 -48 -26 -69 -26 -151 1
-77 5 -105 23 -145 27 -58 91 -129 143 -155 86 -45 222 -45 309 0 51 26 115
97 142 155 18 41 23 68 23 145 0 82 -4 103 -26 150 -65 136 -217 211 -366 180z"/>
<path d="M7029 3196 c-95 -34 -170 -108 -189 -186 -7 -27 -9 -54 -5 -60 4 -6
105 -10 297 -10 l291 0 -6 49 c-12 98 -73 174 -166 206 -54 18 -172 19 -222 1z"/>
</g>
</svg>
