<?xml version="1.0" standalone="no"?>
<!DOCTYPE svg PUBLIC "-//W3C//DTD SVG 20010904//EN"
 "http://www.w3.org/TR/2001/REC-SVG-20010904/DTD/svg10.dtd">
<svg version="1.0" xmlns="http://www.w3.org/2000/svg"
 width="600.000000pt" height="600.000000pt" viewBox="0 0 600.000000 600.000000"
 preserveAspectRatio="xMidYMid meet">
<metadata>
Created by potrace 1.16, written by Peter Selinger 2001-2019
</metadata>
<g transform="translate(0.000000,600.000000) scale(0.100000,-0.100000)"
fill="#000000" stroke="none">
<path d="M758 5984 c-98 -21 -230 -78 -324 -139 -202 -131 -347 -337 -410
-580 -24 -93 -25 -112 -21 -265 4 -141 8 -178 31 -255 123 -417 482 -731 916
-801 52 -9 108 -19 123 -22 l28 -7 -52 -90 c-28 -49 -52 -91 -53 -92 -2 -2
-99 26 -217 61 -263 79 -316 89 -415 84 -141 -6 -269 -90 -331 -216 -26 -52
-28 -66 -28 -172 0 -107 2 -119 29 -172 39 -77 108 -144 186 -182 57 -27 77
-31 167 -34 227 -8 419 80 616 282 l87 89 513 -142 c920 -257 820 -232 923
-229 102 4 166 29 241 93 161 137 177 399 34 558 -40 45 -116 97 -141 97 -8 0
-46 -30 -83 -68 -84 -84 -89 -112 -24 -129 83 -23 139 -112 123 -198 -8 -40
-55 -99 -97 -121 -49 -25 -105 -16 -398 66 -792 220 -937 261 -948 265 -8 2
11 49 55 134 l67 129 65 7 c392 40 818 264 1077 565 239 279 377 612 403 979
5 75 5 153 0 190 -18 128 -96 238 -208 293 -60 30 -76 33 -175 36 -372 12
-630 -208 -875 -743 -72 -159 -129 -305 -266 -675 -57 -157 -119 -320 -137
-364 l-32 -78 -101 5 c-133 7 -237 35 -371 101 -304 149 -481 391 -516 705
-53 464 373 884 841 831 97 -11 137 -23 229 -69 l62 -32 107 27 c103 26 142
45 142 68 0 17 -176 127 -255 159 -126 51 -214 67 -375 66 -85 0 -172 -7 -212
-15z m1850 -234 c67 -48 77 -77 75 -203 -14 -600 -462 -1170 -1054 -1340 -46
-14 -103 -28 -127 -32 l-42 -7 19 49 c10 26 69 185 131 353 236 638 362 892
527 1055 104 103 219 154 349 155 74 0 84 -2 122 -30z m-2133 -2100 c84 -22
360 -103 365 -108 3 -2 -24 -31 -60 -63 -185 -168 -443 -212 -530 -89 -32 46
-43 93 -30 139 28 106 129 153 255 121z"/>
<path d="M3336 5975 c-104 -42 -175 -116 -217 -222 -20 -50 -23 -75 -22 -188
4 -535 286 -1058 729 -1350 225 -148 515 -256 754 -280 l65 -7 67 -130 c41
-81 62 -131 55 -134 -14 -4 -687 -192 -732 -204 -16 -4 -137 -37 -268 -74
-244 -68 -299 -76 -345 -52 -93 49 -128 155 -78 240 25 43 88 86 125 86 16 0
21 6 21 28 0 21 -16 44 -68 95 -37 37 -74 67 -83 67 -25 0 -101 -53 -143 -100
-21 -23 -50 -68 -65 -99 -23 -49 -26 -68 -26 -161 0 -96 3 -110 29 -165 38
-76 114 -153 190 -190 50 -24 75 -30 150 -33 90 -3 96 -2 486 107 217 61 521
145 675 188 l280 78 54 -64 c117 -137 295 -251 459 -292 120 -30 264 -25 345
13 75 35 156 113 193 185 27 54 29 66 29 173 0 107 -2 119 -29 173 -64 125
-191 209 -330 215 -99 5 -152 -5 -415 -84 -118 -35 -215 -63 -217 -61 -11 12
-103 181 -100 184 2 2 50 11 107 19 496 74 879 425 974 894 26 128 17 353 -19
473 -91 303 -321 547 -613 648 -106 37 -190 49 -332 49 -151 0 -269 -22 -383
-73 -73 -32 -238 -139 -238 -153 0 -24 40 -44 142 -69 l107 -26 62 32 c92 46
132 58 229 69 229 26 444 -54 620 -230 150 -151 222 -320 222 -520 0 -233 -80
-426 -247 -596 -84 -85 -166 -141 -290 -200 -119 -57 -225 -84 -351 -91 l-100
-6 -33 79 c-18 44 -62 158 -97 254 -151 407 -180 482 -231 610 -265 655 -534
921 -932 920 -89 0 -115 -4 -165 -25z m312 -216 c157 -53 294 -189 417 -414
73 -134 170 -364 286 -674 60 -163 127 -341 148 -396 21 -55 37 -102 35 -104
-6 -7 -160 32 -244 61 -203 72 -376 183 -540 348 -261 260 -406 574 -435 941
-10 129 15 195 89 240 44 27 162 26 244 -2z m2039 -2115 c95 -46 124 -168 61
-257 -76 -107 -298 -84 -477 48 -50 37 -117 103 -110 108 5 4 256 79 339 101
75 19 145 19 187 0z"/>
<path d="M273 2885 c-99 -30 -191 -109 -240 -205 -26 -51 -28 -64 -28 -170 0
-105 2 -120 27 -171 70 -141 199 -219 363 -219 85 0 150 15 463 108 l132 40
19 -27 c10 -14 35 -56 55 -93 l37 -67 -23 -5 c-13 -2 -61 -10 -108 -16 -47 -6
-128 -25 -180 -42 -367 -117 -647 -400 -757 -763 -25 -84 -27 -103 -27 -280 0
-180 1 -195 27 -279 107 -343 371 -595 712 -677 122 -29 341 -27 466 5 52 13
120 35 151 49 73 32 238 139 238 153 0 23 -39 42 -142 68 l-107 27 -71 -36
c-102 -52 -177 -68 -305 -68 -201 0 -358 64 -516 211 -176 162 -266 396 -240
623 19 173 75 310 179 441 95 119 199 200 356 274 119 56 225 83 352 91 l101
6 61 -154 c33 -85 91 -237 127 -339 330 -911 529 -1216 874 -1338 69 -24 90
-27 216 -27 139 0 141 0 207 33 112 55 190 165 208 293 13 89 -4 296 -36 436
-130 582 -533 1026 -1109 1222 -105 35 -315 81 -378 81 -18 0 -35 25 -89 131
-44 85 -63 131 -55 134 11 4 459 129 1005 281 128 35 248 64 266 64 94 0 176
-80 176 -172 0 -73 -83 -168 -147 -168 -18 0 -23 -5 -23 -28 0 -21 16 -44 68
-95 37 -37 74 -67 83 -67 24 0 101 53 140 97 117 129 131 328 35 477 -37 58
-63 82 -122 119 -103 64 -222 73 -384 28 -147 -40 -633 -175 -965 -268 l-280
-79 -54 64 c-117 137 -297 252 -455 292 -92 23 -238 26 -303 5z m251 -220 c86
-22 182 -77 256 -144 36 -32 63 -61 60 -64 -6 -6 -293 -90 -368 -107 -105 -24
-165 -10 -216 50 -70 84 -46 208 52 260 46 24 135 26 216 5z m1041 -854 c264
-64 488 -192 691 -395 246 -246 395 -565 424 -907 12 -135 5 -180 -36 -229
-40 -47 -77 -62 -156 -61 -87 1 -135 13 -222 59 -221 115 -381 400 -670 1187
-46 127 -95 260 -109 298 -18 45 -22 67 -14 67 7 0 48 -9 92 -19z"/>
<path d="M3370 2883 c-313 -108 -367 -529 -91 -705 25 -15 52 -28 61 -28 8 0
46 30 83 68 50 50 67 75 67 95 0 21 -5 27 -21 27 -37 0 -100 43 -125 86 -65
112 19 254 151 254 29 0 351 -87 1045 -282 80 -22 165 -46 190 -52 25 -7 44
-17 42 -22 -2 -5 -31 -64 -65 -131 l-61 -121 -66 -7 c-392 -40 -818 -264
-1077 -565 -259 -301 -403 -680 -406 -1065 -1 -113 2 -138 22 -188 42 -108
121 -187 226 -226 78 -29 240 -29 345 0 302 83 520 347 745 904 50 125 90 230
229 605 35 96 79 210 96 253 l32 77 70 0 c181 0 402 -80 573 -207 121 -90 204
-191 268 -323 65 -135 95 -307 78 -435 -25 -179 -96 -322 -225 -451 -95 -95
-187 -151 -317 -195 -85 -29 -106 -32 -214 -32 -136 0 -197 14 -307 69 l-69
35 -107 -27 c-103 -26 -142 -45 -142 -68 0 -12 87 -72 180 -124 30 -17 98 -45
150 -63 89 -30 106 -33 262 -37 192 -5 267 7 408 65 271 111 480 344 566 630
36 120 45 345 19 473 -34 167 -100 314 -202 448 -178 234 -472 405 -760 443
-136 17 -132 10 -72 114 28 50 52 91 53 92 1 1 85 -22 187 -53 298 -89 333
-96 434 -92 76 2 100 8 155 34 78 38 147 105 186 182 27 53 29 65 29 172 0
107 -2 119 -29 173 -37 72 -118 150 -193 185 -82 37 -225 43 -344 13 -162 -40
-345 -157 -461 -294 l-53 -62 -60 16 c-33 9 -337 94 -675 188 -556 154 -622
171 -690 170 -41 0 -95 -8 -120 -16z m2320 -223 c111 -57 126 -209 27 -284
-52 -39 -91 -45 -182 -26 -109 22 -375 101 -375 111 0 17 129 121 191 154 125
66 263 84 339 45z m-1171 -882 c-12 -29 -54 -143 -94 -253 -265 -725 -387
-975 -561 -1149 -66 -66 -164 -125 -241 -145 -63 -17 -175 -16 -211 3 -42 22
-80 70 -93 118 -13 49 -5 173 21 309 104 547 532 1003 1075 1145 132 34 129
35 104 -28z"/>
</g>
</svg>
