<?xml version="1.0" standalone="no"?>
<!DOCTYPE svg PUBLIC "-//W3C//DTD SVG 20010904//EN"
 "http://www.w3.org/TR/2001/REC-SVG-20010904/DTD/svg10.dtd">
<svg version="1.0" xmlns="http://www.w3.org/2000/svg"
 width="944.000000pt" height="1023.000000pt" viewBox="0 0 944.000000 1023.000000"
 preserveAspectRatio="xMidYMid meet">
<metadata>
Created by potrace 1.16, written by Peter Selinger 2001-2019
</metadata>
<g transform="translate(0.000000,1023.000000) scale(0.100000,-0.100000)"
fill="#000000" stroke="none">
<path d="M4480 8509 c-225 -28 -446 -109 -616 -225 -182 -124 -311 -256 -475
-486 -419 -588 -617 -1141 -596 -1668 17 -407 146 -762 405 -1110 91 -123 297
-335 399 -413 52 -40 448 -287 459 -287 2 0 -8 26 -22 58 -33 71 -140 338
-150 372 -5 18 28 -8 115 -90 68 -63 167 -150 222 -193 54 -44 99 -86 99 -95
0 -54 -23 -208 -41 -272 -51 -189 -184 -338 -326 -366 -29 -6 -33 -3 -52 34
-40 79 -76 87 -236 48 -204 -50 -391 -135 -507 -231 -124 -103 -266 -324 -331
-515 -53 -155 -142 -548 -133 -585 3 -11 15 -30 26 -43 17 -18 31 -22 85 -22
l65 0 0 -69 c0 -38 4 -81 10 -96 22 -58 -97 -55 2038 -55 1408 0 1968 3 1991
11 44 15 61 54 61 139 l0 70 56 0 c66 0 89 10 109 50 14 27 14 39 -5 132 -34
167 -108 444 -141 526 -104 261 -265 454 -465 559 -146 76 -393 153 -491 153
-39 0 -69 -23 -94 -72 -19 -37 -23 -40 -52 -34 -59 12 -139 58 -192 112 -94
96 -155 259 -171 455 l-6 86 91 72 c51 40 164 140 252 222 87 83 159 149 159
147 0 -7 -91 -281 -124 -370 -19 -54 -33 -98 -30 -98 13 0 332 239 367 275
102 106 278 421 363 650 111 301 197 679 225 988 21 228 -5 405 -122 820 -33
117 -75 273 -94 347 -18 74 -45 162 -60 195 -79 178 -244 346 -448 457 -92 50
-108 61 -224 151 -146 112 -308 187 -503 234 -91 21 -141 26 -380 33 -327 10
-423 10 -510 -1z m790 -1056 c0 -151 33 -296 95 -428 54 -114 98 -163 238
-269 117 -88 277 -234 277 -251 0 -6 -38 -18 -84 -28 -186 -38 -370 -105 -710
-256 -103 -46 -171 -71 -195 -71 -21 0 -67 14 -107 34 -184 88 -490 212 -604
246 -41 12 -81 23 -87 25 -15 5 21 70 95 175 235 335 599 653 965 846 56 29
105 54 110 54 4 0 7 -35 7 -77z m-1255 -1063 c123 -27 359 -103 452 -146 108
-49 169 -98 200 -162 22 -46 25 -60 19 -114 -27 -233 -209 -413 -454 -448
-116 -16 -264 21 -400 101 -72 43 -207 178 -250 250 -57 98 -76 163 -76 269 0
106 15 149 73 204 70 67 252 86 436 46z m2103 5 c61 -19 115 -63 143 -117 19
-36 20 -53 20 -200 -1 -123 -127 -318 -275 -423 -269 -190 -558 -182 -762 21
-126 125 -176 312 -113 424 55 97 266 195 602 280 134 34 299 40 385 15z
m-1175 -425 c14 -11 55 -73 92 -137 84 -147 138 -218 207 -270 122 -93 226
-127 388 -126 188 1 343 57 489 174 l64 52 -7 -104 c-6 -78 -13 -115 -30 -149
-13 -25 -28 -67 -35 -94 -17 -69 -75 -182 -133 -260 -55 -73 -329 -335 -460
-440 -116 -93 -230 -168 -345 -225 -181 -90 -259 -100 -394 -51 -139 51 -331
169 -489 301 -160 133 -405 375 -452 446 -74 110 -72 100 -65 276 3 88 8 161
10 164 3 2 28 -8 57 -22 130 -66 364 -90 495 -51 186 56 300 160 426 390 77
142 122 173 182 126z m-159 -1820 c150 -38 271 -19 456 73 l108 54 7 -61 c32
-293 165 -516 368 -616 48 -24 87 -46 87 -50 0 -14 -125 -187 -194 -270 -236
-283 -488 -443 -696 -443 -233 1 -503 186 -762 523 -36 47 -81 110 -101 140
l-35 56 82 38 c113 53 224 165 284 287 43 86 85 236 97 340 l6 56 107 -53 c59
-30 143 -63 186 -74z m-988 -567 c110 -200 264 -405 423 -563 135 -135 219
-197 356 -266 106 -53 271 -104 338 -104 36 0 168 27 227 47 309 103 640 427
899 881 23 39 48 72 54 72 7 0 53 -12 102 -26 169 -49 333 -149 449 -275 126
-136 180 -251 251 -534 l53 -210 -264 -5 -264 -5 -27 -28 c-25 -24 -28 -36
-31 -107 l-4 -80 -1439 0 -1439 0 -1 48 c-1 91 -12 125 -48 149 -33 22 -40 23
-288 23 l-253 0 6 28 c33 148 97 381 119 437 86 215 263 401 478 504 61 29
216 79 249 80 10 1 30 -24 54 -66z"/>
<path d="M4260 1840 c-25 -25 -26 -81 -2 -103 9 -8 36 -23 60 -32 28 -12 42
-23 42 -35 0 -25 -35 -35 -71 -19 -26 10 -33 10 -47 -5 -15 -15 -15 -18 -2
-26 77 -50 173 -22 173 50 0 38 -15 55 -74 81 -32 15 -49 29 -49 41 0 23 45
35 65 18 13 -10 19 -9 36 6 19 17 19 19 3 31 -29 21 -111 16 -134 -7z"/>
<path d="M4450 1730 l0 -130 25 0 c24 0 25 3 25 55 l0 55 50 0 50 0 0 -55 c0
-52 1 -55 25 -55 14 0 25 6 25 13 1 27 2 165 1 205 -1 38 -3 42 -26 42 -23 0
-25 -3 -25 -50 l0 -50 -50 0 -50 0 0 50 c0 47 -2 50 -25 50 l-25 0 0 -130z"/>
<path d="M4753 1839 c-65 -42 -77 -141 -24 -198 85 -91 241 -34 241 89 0 103
-127 167 -217 109z m145 -55 c62 -70 -22 -173 -106 -130 -61 32 -60 119 1 150
40 20 75 13 105 -20z"/>
<path d="M5010 1730 l0 -130 25 0 c22 0 25 4 25 39 0 38 1 38 42 44 53 7 88
44 88 90 -1 59 -40 87 -124 87 l-56 0 0 -130z"/>
<path d="M3694 1480 c-54 -27 -79 -73 -71 -130 7 -56 44 -92 126 -125 36 -15
72 -31 79 -37 15 -13 16 -50 0 -66 -17 -17 -94 -15 -130 4 -30 16 -31 15 -60
-14 l-30 -29 31 -22 c38 -27 125 -46 171 -38 121 23 167 144 85 223 -18 17
-59 40 -92 52 -76 28 -100 53 -85 87 15 33 54 41 105 21 41 -16 41 -16 70 11
l28 28 -21 17 c-50 41 -144 49 -206 18z"/>
<path d="M4075 1486 c-56 -25 -80 -61 -80 -121 0 -46 4 -58 29 -84 16 -16 59
-42 95 -56 36 -15 72 -31 79 -37 15 -13 16 -50 0 -66 -23 -23 -131 -9 -148 19
-4 5 -21 -6 -39 -25 l-33 -34 31 -21 c38 -27 125 -46 171 -38 85 16 138 82
124 153 -10 54 -46 89 -123 119 -85 32 -109 55 -93 90 15 33 54 41 104 22 39
-16 42 -16 69 6 15 12 27 27 25 32 -1 6 -22 20 -46 33 -50 25 -119 29 -165 8z"/>
<path d="M4608 1479 c-44 -23 -68 -63 -68 -114 0 -65 22 -91 118 -136 48 -23
90 -47 94 -53 36 -54 -57 -87 -137 -49 -34 16 -35 16 -60 -7 -14 -13 -25 -29
-25 -35 0 -21 74 -53 137 -60 52 -6 69 -4 105 14 51 24 78 65 78 118 0 65 -27
95 -124 138 -68 30 -88 44 -93 63 -4 19 0 30 17 44 28 22 52 23 96 2 35 -17
35 -16 64 11 16 16 27 32 23 38 -3 5 -24 18 -47 28 -54 24 -130 24 -178 -2z"/>
<path d="M3189 1269 c-57 -122 -105 -226 -107 -230 -2 -5 18 -9 45 -9 48 0 49
1 71 45 l22 45 110 0 110 0 22 -45 c22 -44 23 -45 71 -45 27 0 47 4 45 9 -1 4
-50 108 -107 230 l-105 221 -36 0 -36 0 -105 -221z"/>
<path d="M4370 1260 l0 -230 45 0 45 0 0 230 0 230 -45 0 -45 0 0 -230z"/>
<path d="M4890 1450 l0 -40 60 0 60 0 1 -92 c1 -51 2 -136 3 -188 l1 -95 48
-3 48 -3 -4 178 c-2 98 -2 184 0 191 3 8 25 12 64 12 l59 0 0 40 0 40 -170 0
-170 0 0 -40z"/>
<path d="M5340 1378 c-129 -273 -160 -339 -160 -343 0 -3 22 -5 49 -5 48 0 48
0 65 45 l18 45 114 0 114 0 22 -45 c21 -44 23 -45 70 -45 l47 0 -32 69 c-18
38 -66 142 -107 230 l-75 161 -36 0 -36 0 -53 -112z"/>
<path d="M5730 1260 l0 -230 40 0 40 0 0 155 c0 85 3 155 8 154 4 0 50 -69
104 -152 l96 -152 46 -3 46 -3 0 230 0 231 -45 0 -45 0 0 -147 -1 -148 -96
148 -96 147 -48 0 -49 0 0 -230z"/>
<path d="M6170 1450 l0 -40 60 0 60 0 0 -190 0 -190 45 0 45 0 0 190 0 190 65
0 65 0 0 40 0 40 -170 0 -170 0 0 -40z"/>
</g>
</svg>
